<?xml version="1.0" encoding="UTF-8" standalone="no"?>
<!DOCTYPE svg PUBLIC "-//W3C//DTD SVG 1.1//EN"
 "http://www.w3.org/Graphics/SVG/1.1/DTD/svg11.dtd">
<!-- Generated by graphviz version 2.40.1 (20161225.0304)
 -->
<!-- Title: G Pages: 1 -->
<svg width="181pt" height="592pt"
 viewBox="0.00 0.00 180.73 592.00" xmlns="http://www.w3.org/2000/svg" xmlns:xlink="http://www.w3.org/1999/xlink">
<g id="graph0" class="graph" transform="scale(1 1) rotate(0) translate(4 588)">
<title>G</title>
<polygon fill="#ffffff" stroke="transparent" points="-4,4 -4,-588 176.734,-588 176.734,4 -4,4"/>
<!-- A0 -->
<g id="node1" class="node">
<title>A0</title>
<ellipse fill="none" stroke="#000000" cx="69.5545" cy="-573" rx="11" ry="11"/>
</g>
<!-- A1 -->
<g id="node2" class="node">
<title>A1</title>
<polygon fill="none" stroke="#000000" points="69.5545,-525 51.5545,-507 69.5545,-489 87.5545,-507 69.5545,-525"/>
</g>
<!-- A0&#45;&gt;A1 -->
<g id="edge1" class="edge">
<title>A0&#45;&gt;A1</title>
<path fill="none" stroke="#000000" d="M69.5545,-561.804C69.5545,-554.5358 69.5545,-544.7135 69.5545,-535.3916"/>
<polygon fill="#000000" stroke="#000000" points="69.5545,-525.2423 74.0546,-535.2423 69.5545,-530.2423 69.5546,-535.2423 69.5546,-535.2423 69.5546,-535.2423 69.5545,-530.2423 65.0546,-535.2424 69.5545,-525.2423 69.5545,-525.2423"/>
</g>
<!-- A2 -->
<g id="node3" class="node">
<title>A2</title>
<path fill="none" stroke="#000000" d="M57.1636,-441C57.1636,-441 11.9454,-441 11.9454,-441 5.9454,-441 -.0546,-435 -.0546,-429 -.0546,-429 -.0546,-417 -.0546,-417 -.0546,-411 5.9454,-405 11.9454,-405 11.9454,-405 57.1636,-405 57.1636,-405 63.1636,-405 69.1636,-411 69.1636,-417 69.1636,-417 69.1636,-429 69.1636,-429 69.1636,-435 63.1636,-441 57.1636,-441"/>
<text text-anchor="middle" x="34.5545" y="-420" font-family="Helvetica,sans-Serif" font-size="10.00" fill="#000000">Fill Kettle</text>
</g>
<!-- A1&#45;&gt;A2 -->
<g id="edge2" class="edge">
<title>A1&#45;&gt;A2</title>
<path fill="none" stroke="#000000" d="M58.6252,-499.927C49.8741,-493.5547 38.2415,-483.311 33.0965,-471 30.5648,-464.9422 29.7287,-458.0692 29.7845,-451.4558"/>
<polygon fill="#000000" stroke="#000000" points="30.4909,-441.4314 34.2767,-451.7231 30.1394,-446.4191 29.7879,-451.4067 29.7879,-451.4067 29.7879,-451.4067 30.1394,-446.4191 25.299,-451.0903 30.4909,-441.4314 30.4909,-441.4314"/>
<text text-anchor="middle" x="63.2835" y="-462" font-family="Helvetica,sans-Serif" font-size="10.00" fill="#000000">[kettle empty]</text>
</g>
<!-- A3 -->
<g id="node4" class="node">
<title>A3</title>
<polygon fill="#d3d3d3" stroke="#000000" stroke-width="4" points="64.5545,-363.5 64.5545,-367.5 100.5545,-367.5 100.5545,-363.5 64.5545,-363.5"/>
<text text-anchor="middle" x="73.1935" y="-365.2" font-family="Helvetica,sans-Serif" font-size="1.00" fill="#000000"> </text>
<polyline fill="none" stroke="#000000" stroke-width="4" points="81.8324,-363.5 81.8324,-367.5 "/>
<text text-anchor="middle" x="90.9714" y="-365.2" font-family="Helvetica,sans-Serif" font-size="1.00" fill="#000000"> </text>
</g>
<!-- A1&#45;&gt;A3 -->
<g id="edge4" class="edge">
<title>A1&#45;&gt;A3:n</title>
<path fill="none" stroke="#000000" d="M78.1131,-497.0674C83.4113,-490.2369 89.7257,-480.6819 92.5545,-471 94.0502,-465.8807 92.6128,-464.333 92.5545,-459 92.15,-421.9803 90.825,-410.2465 90.5902,-377.7686"/>
<polygon fill="#000000" stroke="#000000" points="90.5545,-367.5 95.0894,-377.4842 90.5719,-372.5 90.5894,-377.4999 90.5894,-377.4999 90.5894,-377.4999 90.5719,-372.5 86.0894,-377.5156 90.5545,-367.5 90.5545,-367.5"/>
<text text-anchor="middle" x="114.0585" y="-420" font-family="Helvetica,sans-Serif" font-size="10.00" fill="#000000">[kettle full]</text>
</g>
<!-- A2&#45;&gt;A3 -->
<g id="edge3" class="edge">
<title>A2&#45;&gt;A3:n</title>
<path fill="none" stroke="#000000" d="M55.8802,-404.6169C62.7801,-397.1092 69.3723,-387.7805 72.1607,-377.5521"/>
<polygon fill="#000000" stroke="#000000" points="73.5545,-367.5 76.6384,-378.0233 72.8678,-372.4526 72.181,-377.4052 72.181,-377.4052 72.181,-377.4052 72.8678,-372.4526 67.7236,-376.7872 73.5545,-367.5 73.5545,-367.5"/>
</g>
<!-- A4 -->
<g id="node5" class="node">
<title>A4</title>
<path fill="none" stroke="#000000" d="M85.0635,-272C85.0635,-272 36.0455,-272 36.0455,-272 30.0455,-272 24.0455,-266 24.0455,-260 24.0455,-260 24.0455,-248 24.0455,-248 24.0455,-242 30.0455,-236 36.0455,-236 36.0455,-236 85.0635,-236 85.0635,-236 91.0635,-236 97.0635,-242 97.0635,-248 97.0635,-248 97.0635,-260 97.0635,-260 97.0635,-266 91.0635,-272 85.0635,-272"/>
<text text-anchor="middle" x="60.5545" y="-251" font-family="Helvetica,sans-Serif" font-size="10.00" fill="#000000">Boil Kettle</text>
</g>
<!-- A3&#45;&gt;A4 -->
<g id="edge5" class="edge">
<title>A3&#45;&gt;A4</title>
<path fill="none" stroke="#000000" d="M82.095,-363.1712C80.0726,-352.9214 71.8127,-311.0586 66.1297,-282.2561"/>
<polygon fill="#000000" stroke="#000000" points="64.1689,-272.3183 70.5196,-281.258 65.1368,-277.2237 66.1047,-282.1291 66.1047,-282.1291 66.1047,-282.1291 65.1368,-277.2237 61.6898,-283.0003 64.1689,-272.3183 64.1689,-272.3183"/>
</g>
<!-- A6 -->
<g id="node7" class="node">
<title>A6</title>
<path fill="none" stroke="#000000" d="M160.9142,-326C160.9142,-326 98.1948,-326 98.1948,-326 92.1948,-326 86.1948,-320 86.1948,-314 86.1948,-314 86.1948,-302 86.1948,-302 86.1948,-296 92.1948,-290 98.1948,-290 98.1948,-290 160.9142,-290 160.9142,-290 166.9142,-290 172.9142,-296 172.9142,-302 172.9142,-302 172.9142,-314 172.9142,-314 172.9142,-320 166.9142,-326 160.9142,-326"/>
<text text-anchor="middle" x="129.5545" y="-305" font-family="Helvetica,sans-Serif" font-size="10.00" fill="#000000">Add Tea Bag</text>
</g>
<!-- A3&#45;&gt;A6 -->
<g id="edge7" class="edge">
<title>A3&#45;&gt;A6</title>
<path fill="none" stroke="#000000" d="M84.574,-363.0293C88.7426,-357.9294 98.7062,-345.74 108.199,-334.1264"/>
<polygon fill="#000000" stroke="#000000" points="114.6188,-326.2724 111.7742,-336.8629 111.4545,-330.1437 108.2901,-334.015 108.2901,-334.015 108.2901,-334.015 111.4545,-330.1437 104.8059,-331.167 114.6188,-326.2724 114.6188,-326.2724"/>
</g>
<!-- A5 -->
<g id="node6" class="node">
<title>A5</title>
<polygon fill="#d3d3d3" stroke="#000000" stroke-width="4" points="69.5545,-140.5 69.5545,-144.5 105.5545,-144.5 105.5545,-140.5 69.5545,-140.5"/>
<text text-anchor="middle" x="78.1935" y="-142.2" font-family="Helvetica,sans-Serif" font-size="1.00" fill="#000000"> </text>
<polyline fill="none" stroke="#000000" stroke-width="4" points="86.8324,-140.5 86.8324,-144.5 "/>
<text text-anchor="middle" x="95.9714" y="-142.2" font-family="Helvetica,sans-Serif" font-size="1.00" fill="#000000"> </text>
</g>
<!-- A4&#45;&gt;A5 -->
<g id="edge6" class="edge">
<title>A4&#45;&gt;A5:n</title>
<path fill="none" stroke="#000000" d="M65.3782,-235.937C70.1685,-216.543 76.987,-184.4717 78.3226,-154.5453"/>
<polygon fill="#000000" stroke="#000000" points="78.5545,-144.5 82.8224,-154.6012 78.4391,-149.4987 78.3236,-154.4973 78.3236,-154.4973 78.3236,-154.4973 78.4391,-149.4987 73.8248,-154.3934 78.5545,-144.5 78.5545,-144.5"/>
</g>
<!-- A8 -->
<g id="node9" class="node">
<title>A8</title>
<path fill="none" stroke="#000000" d="M114.6157,-103C114.6157,-103 60.4933,-103 60.4933,-103 54.4933,-103 48.4933,-97 48.4933,-91 48.4933,-91 48.4933,-79 48.4933,-79 48.4933,-73 54.4933,-67 60.4933,-67 60.4933,-67 114.6157,-67 114.6157,-67 120.6157,-67 126.6157,-73 126.6157,-79 126.6157,-79 126.6157,-91 126.6157,-91 126.6157,-97 120.6157,-103 114.6157,-103"/>
<text text-anchor="middle" x="87.5545" y="-82" font-family="Helvetica,sans-Serif" font-size="10.00" fill="#000000">Pour Water</text>
</g>
<!-- A5&#45;&gt;A8 -->
<g id="edge10" class="edge">
<title>A5&#45;&gt;A8</title>
<path fill="none" stroke="#000000" d="M87.5545,-140.0293C87.5545,-135.2727 87.5545,-124.3488 87.5545,-113.4769"/>
<polygon fill="#000000" stroke="#000000" points="87.5545,-103.2724 92.0546,-113.2723 87.5545,-108.2724 87.5546,-113.2724 87.5546,-113.2724 87.5546,-113.2724 87.5545,-108.2724 83.0546,-113.2724 87.5545,-103.2724 87.5545,-103.2724"/>
</g>
<!-- A7 -->
<g id="node8" class="node">
<title>A7</title>
<path fill="none" stroke="#000000" d="M148.8883,-218C148.8883,-218 106.2207,-218 106.2207,-218 100.2207,-218 94.2207,-212 94.2207,-206 94.2207,-206 94.2207,-194 94.2207,-194 94.2207,-188 100.2207,-182 106.2207,-182 106.2207,-182 148.8883,-182 148.8883,-182 154.8883,-182 160.8883,-188 160.8883,-194 160.8883,-194 160.8883,-206 160.8883,-206 160.8883,-212 154.8883,-218 148.8883,-218"/>
<text text-anchor="middle" x="127.5545" y="-197" font-family="Helvetica,sans-Serif" font-size="10.00" fill="#000000">Add Milk</text>
</g>
<!-- A6&#45;&gt;A7 -->
<g id="edge8" class="edge">
<title>A6&#45;&gt;A7</title>
<path fill="none" stroke="#000000" d="M129.2152,-289.6793C128.903,-272.821 128.4353,-247.5651 128.0757,-228.147"/>
<polygon fill="#000000" stroke="#000000" points="127.8888,-218.0502 132.5732,-227.9651 127.9814,-223.0493 128.074,-228.0484 128.074,-228.0484 128.074,-228.0484 127.9814,-223.0493 123.5748,-228.1318 127.8888,-218.0502 127.8888,-218.0502"/>
</g>
<!-- A7&#45;&gt;A5 -->
<g id="edge9" class="edge">
<title>A7&#45;&gt;A5:n</title>
<path fill="none" stroke="#000000" d="M110.8047,-181.95C104.9979,-174.2955 99.3231,-164.8149 96.8486,-154.7347"/>
<polygon fill="#000000" stroke="#000000" points="95.5545,-144.5 101.2734,-153.8565 96.1817,-149.4605 96.809,-154.421 96.809,-154.421 96.809,-154.421 96.1817,-149.4605 92.3445,-154.9855 95.5545,-144.5 95.5545,-144.5"/>
</g>
<!-- A9 -->
<g id="node10" class="node">
<title>A9</title>
<ellipse fill="none" stroke="#000000" cx="87.5545" cy="-15" rx="11" ry="11"/>
<ellipse fill="none" stroke="#000000" cx="87.5545" cy="-15" rx="15" ry="15"/>
</g>
<!-- A8&#45;&gt;A9 -->
<g id="edge11" class="edge">
<title>A8&#45;&gt;A9</title>
<path fill="none" stroke="#000000" d="M87.5545,-66.9733C87.5545,-58.9095 87.5545,-49.2597 87.5545,-40.4761"/>
<polygon fill="#000000" stroke="#000000" points="87.5545,-30.3564 92.0546,-40.3563 87.5545,-35.3564 87.5546,-40.3564 87.5546,-40.3564 87.5546,-40.3564 87.5545,-35.3564 83.0546,-40.3564 87.5545,-30.3564 87.5545,-30.3564"/>
</g>
</g>
</svg>
