<?xml version="1.0" encoding="UTF-8" standalone="no"?>
<!DOCTYPE svg PUBLIC "-//W3C//DTD SVG 1.1//EN"
 "http://www.w3.org/Graphics/SVG/1.1/DTD/svg11.dtd">
<!-- Generated by graphviz version 2.40.1 (20161225.0304)
 -->
<!-- Title: G Pages: 1 -->
<svg width="325pt" height="362pt"
 viewBox="0.00 0.00 325.35 362.00" xmlns="http://www.w3.org/2000/svg" xmlns:xlink="http://www.w3.org/1999/xlink">
<g id="graph0" class="graph" transform="scale(1 1) rotate(0) translate(4 358)">
<title>G</title>
<polygon fill="#ffffff" stroke="transparent" points="-4,4 -4,-358 321.348,-358 321.348,4 -4,4"/>
<!-- A0 -->
<g id="node1" class="node">
<title>A0</title>
<polygon fill="#fff8dc" stroke="#000000" points="108.5444,-354 .1516,-354 .1516,-318 114.5444,-318 114.5444,-348 108.5444,-354"/>
<polyline fill="none" stroke="#000000" points="108.5444,-354 108.5444,-348 "/>
<polyline fill="none" stroke="#000000" points="114.5444,-348 108.5444,-348 "/>
<text text-anchor="middle" x="57.348" y="-339" font-family="Helvetica,sans-Serif" font-size="10.00" fill="#000000">You can stick notes</text>
<text text-anchor="middle" x="57.348" y="-327" font-family="Helvetica,sans-Serif" font-size="10.00" fill="#000000">on diagrams too!</text>
</g>
<!-- A1 -->
<g id="node2" class="node">
<title>A1</title>
<polygon fill="none" stroke="#000000" points="204.1818,-354 132.5142,-354 132.5142,-318 204.1818,-318 204.1818,-354"/>
<text text-anchor="middle" x="168.348" y="-333" font-family="Helvetica,sans-Serif" font-size="10.00" fill="#000000">Customer</text>
</g>
<!-- A2 -->
<g id="node3" class="node">
<title>A2</title>
<polygon fill="none" stroke="#000000" points="195.348,-268 141.348,-268 141.348,-232 195.348,-232 195.348,-268"/>
<text text-anchor="middle" x="168.348" y="-247" font-family="Helvetica,sans-Serif" font-size="10.00" fill="#000000">Order</text>
</g>
<!-- A1&#45;&gt;A2 -->
<g id="edge1" class="edge">
<title>A1&#45;&gt;A2</title>
<path fill="none" stroke="#000000" d="M168.348,-305.5205C168.348,-296.6543 168.348,-287.01 168.348,-278.2849"/>
<polygon fill="none" stroke="#000000" points="168.3481,-305.7616 172.348,-311.7616 168.348,-317.7616 164.348,-311.7616 168.3481,-305.7616"/>
<polygon fill="#000000" stroke="#000000" points="168.348,-268.2121 172.8481,-278.2121 168.348,-273.2121 168.3481,-278.2121 168.3481,-278.2121 168.3481,-278.2121 168.348,-273.2121 163.8481,-278.2121 168.348,-268.2121 168.348,-268.2121"/>
<text text-anchor="middle" x="176.8004" y="-283.3383" font-family="Helvetica,sans-Serif" font-size="10.00" fill="#000000">orders 0..*</text>
<text text-anchor="middle" x="159.8956" y="-296.6355" font-family="Helvetica,sans-Serif" font-size="10.00" fill="#000000">1</text>
</g>
<!-- A3 -->
<g id="node4" class="node">
<title>A3</title>
<polygon fill="none" stroke="#000000" points="101.6909,-152 35.0051,-152 35.0051,-116 101.6909,-116 101.6909,-152"/>
<text text-anchor="middle" x="68.348" y="-131" font-family="Helvetica,sans-Serif" font-size="10.00" fill="#000000">LineItem</text>
</g>
<!-- A2&#45;&gt;A3 -->
<g id="edge2" class="edge">
<title>A2&#45;&gt;A3</title>
<path fill="none" stroke="#000000" d="M144.6831,-222.5487C128.4152,-203.678 106.9427,-178.7698 90.916,-160.1789"/>
<polygon fill="#000000" stroke="#000000" points="144.8877,-222.7861 151.835,-224.7188 152.723,-231.875 145.7757,-229.9423 144.8877,-222.7861"/>
<polygon fill="#000000" stroke="#000000" points="84.1933,-152.3805 94.1311,-157.0164 87.458,-156.1676 90.7227,-159.9547 90.7227,-159.9547 90.7227,-159.9547 87.458,-156.1676 87.3144,-162.8929 84.1933,-152.3805 84.1933,-152.3805"/>
<text text-anchor="middle" x="102.4305" y="-157.5906" font-family="Helvetica,sans-Serif" font-size="10.00" fill="#000000">*</text>
<text text-anchor="middle" x="134.4858" y="-220.665" font-family="Helvetica,sans-Serif" font-size="10.00" fill="#000000">*</text>
</g>
<!-- A4 -->
<g id="node5" class="node">
<title>A4</title>
<polygon fill="none" stroke="#000000" points="217.297,-152 119.399,-152 119.399,-116 217.297,-116 217.297,-152"/>
<text text-anchor="middle" x="168.348" y="-131" font-family="Helvetica,sans-Serif" font-size="10.00" fill="#000000">DeliveryMethod</text>
</g>
<!-- A2&#45;&gt;A4 -->
<g id="edge3" class="edge">
<title>A2&#45;&gt;A4</title>
<path fill="none" stroke="#000000" d="M168.348,-231.875C168.348,-213.3412 168.348,-184.2787 168.348,-162.6311"/>
<polygon fill="#000000" stroke="#000000" points="168.348,-152.3805 172.8481,-162.3805 168.348,-157.3805 168.3481,-162.3805 168.3481,-162.3805 168.3481,-162.3805 168.348,-157.3805 163.8481,-162.3806 168.348,-152.3805 168.348,-152.3805"/>
<text text-anchor="middle" x="176.8004" y="-167.5067" font-family="Helvetica,sans-Serif" font-size="10.00" fill="#000000">1</text>
</g>
<!-- A5 -->
<g id="node6" class="node">
<title>A5</title>
<polygon fill="none" stroke="#000000" points="235.348,-150 235.348,-182 317.348,-182 317.348,-150 235.348,-150"/>
<text text-anchor="start" x="259.121" y="-163" font-family="Helvetica,sans-Serif" font-size="10.00" fill="#000000">Product</text>
<polygon fill="none" stroke="#000000" points="235.348,-118 235.348,-150 317.348,-150 317.348,-118 235.348,-118"/>
<text text-anchor="start" x="251.342" y="-131" font-family="Helvetica,sans-Serif" font-size="10.00" fill="#000000">EAN_Code</text>
<polygon fill="none" stroke="#000000" points="235.348,-86 235.348,-118 317.348,-118 317.348,-86 235.348,-86"/>
<text text-anchor="start" x="245.239" y="-99" font-family="Helvetica,sans-Serif" font-size="10.00" fill="#000000">promo_price()</text>
</g>
<!-- A2&#45;&gt;A5 -->
<g id="edge4" class="edge">
<title>A2&#45;&gt;A5</title>
<path fill="none" stroke="#000000" d="M185.223,-231.875C196.7471,-219.4973 212.6434,-202.4235 227.9355,-185.9986"/>
<polygon fill="#000000" stroke="#000000" points="234.9013,-178.5169 231.3806,-188.9022 231.4941,-182.1764 228.087,-185.8358 228.087,-185.8358 228.087,-185.8358 231.4941,-182.1764 224.7935,-182.7694 234.9013,-178.5169 234.9013,-178.5169"/>
<text text-anchor="middle" x="228.736" y="-194.5429" font-family="Helvetica,sans-Serif" font-size="10.00" fill="#000000">*</text>
<text text-anchor="middle" x="191.3883" y="-209.849" font-family="Helvetica,sans-Serif" font-size="10.00" fill="#000000">*</text>
</g>
<!-- A7 -->
<g id="node8" class="node">
<title>A7</title>
<polygon fill="none" stroke="#000000" points="154.5208,-36 90.1752,-36 90.1752,0 154.5208,0 154.5208,-36"/>
<text text-anchor="middle" x="122.348" y="-15" font-family="Helvetica,sans-Serif" font-size="10.00" fill="#000000">National</text>
</g>
<!-- A4&#45;&gt;A7 -->
<g id="edge6" class="edge">
<title>A4&#45;&gt;A7</title>
<path fill="none" stroke="#000000" d="M157.4621,-106.5487C148.8715,-84.8854 137.1258,-55.2657 129.6368,-36.3805"/>
<polygon fill="none" stroke="#000000" points="154.2207,-107.8694 161.1605,-115.875 160.7277,-105.289 154.2207,-107.8694"/>
</g>
<!-- A8 -->
<g id="node9" class="node">
<title>A8</title>
<polygon fill="none" stroke="#000000" points="255.865,-36 172.831,-36 172.831,0 255.865,0 255.865,-36"/>
<text text-anchor="middle" x="214.348" y="-15" font-family="Helvetica,sans-Serif" font-size="10.00" fill="#000000">International</text>
</g>
<!-- A4&#45;&gt;A8 -->
<g id="edge7" class="edge">
<title>A4&#45;&gt;A8</title>
<path fill="none" stroke="#000000" d="M179.2339,-106.5487C187.8245,-84.8854 199.5702,-55.2657 207.0592,-36.3805"/>
<polygon fill="none" stroke="#000000" points="175.9683,-105.289 175.5355,-115.875 182.4753,-107.8694 175.9683,-105.289"/>
</g>
<!-- A6 -->
<g id="node7" class="node">
<title>A6</title>
<polygon fill="none" stroke="#000000" points="310.4124,-268 242.2836,-268 242.2836,-232 310.4124,-232 310.4124,-268"/>
<text text-anchor="middle" x="276.348" y="-247" font-family="Helvetica,sans-Serif" font-size="10.00" fill="#000000">Category</text>
</g>
<!-- A6&#45;&gt;A5 -->
<g id="edge5" class="edge">
<title>A6&#45;&gt;A5</title>
<path fill="none" stroke="#000000" d="M276.348,-221.6487C276.348,-212.7006 276.348,-202.4647 276.348,-192.2197"/>
<polygon fill="#000000" stroke="#000000" points="276.348,-231.875 271.8481,-221.875 276.348,-226.875 276.3481,-221.875 276.3481,-221.875 276.3481,-221.875 276.348,-226.875 280.8481,-221.875 276.348,-231.875 276.348,-231.875"/>
<polygon fill="#000000" stroke="#000000" points="276.348,-182.019 280.8481,-192.0189 276.348,-187.019 276.3481,-192.019 276.3481,-192.019 276.3481,-192.019 276.348,-187.019 271.8481,-192.019 276.348,-182.019 276.348,-182.019"/>
</g>
</g>
</svg>
