<?xml version="1.0" encoding="UTF-8" standalone="no"?>
<!DOCTYPE svg PUBLIC "-//W3C//DTD SVG 1.1//EN"
 "http://www.w3.org/Graphics/SVG/1.1/DTD/svg11.dtd">
<!-- Generated by graphviz version 2.40.1 (20161225.0304)
 -->
<!-- Title: G Pages: 1 -->
<svg width="735pt" height="188pt"
 viewBox="0.00 0.00 734.73 188.00" xmlns="http://www.w3.org/2000/svg" xmlns:xlink="http://www.w3.org/1999/xlink">
<g id="graph0" class="graph" transform="scale(1 1) rotate(0) translate(4 184)">
<title>G</title>
<polygon fill="#ffffff" stroke="transparent" points="-4,4 -4,-184 730.73,-184 730.73,4 -4,4"/>
<!-- A0 -->
<g id="node1" class="node">
<title>A0</title>
<polygon fill="none" stroke="#000000" points="92.0057,-180 24.6683,-180 24.6683,-184 12.6683,-184 12.6683,-144 92.0057,-144 92.0057,-180"/>
<polyline fill="none" stroke="#000000" points="12.6683,-180 24.6683,-180 "/>
<text text-anchor="middle" x="52.337" y="-165" font-family="Helvetica,sans-Serif" font-size="10.00" fill="#000000">Elegibility &amp;</text>
<text text-anchor="middle" x="52.337" y="-153" font-family="Helvetica,sans-Serif" font-size="10.00" fill="#000000">Benefits</text>
</g>
<!-- A1 -->
<g id="node2" class="node">
<title>A1</title>
<polygon fill="none" stroke="#000000" points="104.5115,-108 12.1625,-108 12.1625,-112 .1625,-112 .1625,-72 104.5115,-72 104.5115,-108"/>
<polyline fill="none" stroke="#000000" points=".1625,-108 12.1625,-108 "/>
<text text-anchor="middle" x="52.337" y="-87" font-family="Helvetica,sans-Serif" font-size="10.00" fill="#000000">Elegibility Search</text>
</g>
<!-- A0&#45;&gt;A1 -->
<g id="edge1" class="edge">
<title>A0&#45;&gt;A1</title>
<path fill="none" stroke="#000000" stroke-dasharray="5,2" d="M52.337,-143.8314C52.337,-136.131 52.337,-126.9743 52.337,-118.4166"/>
<polygon fill="#000000" stroke="#000000" points="52.337,-108.4133 56.8371,-118.4132 52.337,-113.4133 52.3371,-118.4133 52.3371,-118.4133 52.3371,-118.4133 52.337,-113.4133 47.8371,-118.4133 52.337,-108.4133 52.337,-108.4133"/>
</g>
<!-- A2 -->
<g id="node3" class="node">
<title>A2</title>
<polygon fill="none" stroke="#000000" points="220.8991,-180 149.7749,-180 149.7749,-184 137.7749,-184 137.7749,-144 220.8991,-144 220.8991,-180"/>
<polyline fill="none" stroke="#000000" points="137.7749,-180 149.7749,-180 "/>
<text text-anchor="middle" x="179.337" y="-159" font-family="Helvetica,sans-Serif" font-size="10.00" fill="#000000">Remittances</text>
</g>
<!-- A3 -->
<g id="node4" class="node">
<title>A3</title>
<polygon fill="none" stroke="#000000" points="235.852,-108 134.822,-108 134.822,-112 122.822,-112 122.822,-72 235.852,-72 235.852,-108"/>
<polyline fill="none" stroke="#000000" points="122.822,-108 134.822,-108 "/>
<text text-anchor="middle" x="179.337" y="-87" font-family="Helvetica,sans-Serif" font-size="10.00" fill="#000000">Remittance Search</text>
</g>
<!-- A2&#45;&gt;A3 -->
<g id="edge2" class="edge">
<title>A2&#45;&gt;A3</title>
<path fill="none" stroke="#000000" stroke-dasharray="5,2" d="M179.337,-143.8314C179.337,-136.131 179.337,-126.9743 179.337,-118.4166"/>
<polygon fill="#000000" stroke="#000000" points="179.337,-108.4133 183.8371,-118.4132 179.337,-113.4133 179.3371,-118.4133 179.3371,-118.4133 179.3371,-118.4133 179.337,-113.4133 174.8371,-118.4133 179.337,-108.4133 179.337,-108.4133"/>
</g>
<!-- A12 -->
<g id="node13" class="node">
<title>A12</title>
<polygon fill="none" stroke="#000000" points="457.0129,-36 409.6611,-36 409.6611,-40 397.6611,-40 397.6611,0 457.0129,0 457.0129,-36"/>
<polyline fill="none" stroke="#000000" points="397.6611,-36 409.6611,-36 "/>
<text text-anchor="middle" x="427.337" y="-15" font-family="Helvetica,sans-Serif" font-size="10.00" fill="#000000">Search</text>
</g>
<!-- A3&#45;&gt;A12 -->
<g id="edge7" class="edge">
<title>A3&#45;&gt;A12</title>
<path fill="none" stroke="#000000" stroke-dasharray="5,2" d="M235.9224,-73.572C282.2786,-60.1137 346.6946,-41.4123 387.7012,-29.5072"/>
<polygon fill="#000000" stroke="#000000" points="397.3438,-26.7077 388.995,-33.8174 392.5421,-28.1018 387.7403,-29.4959 387.7403,-29.4959 387.7403,-29.4959 392.5421,-28.1018 386.4857,-25.1743 397.3438,-26.7077 397.3438,-26.7077"/>
</g>
<!-- A4 -->
<g id="node5" class="node">
<title>A4</title>
<polygon fill="none" stroke="#000000" points="350.7872,-180 279.8868,-180 279.8868,-184 267.8868,-184 267.8868,-144 350.7872,-144 350.7872,-180"/>
<polyline fill="none" stroke="#000000" points="267.8868,-180 279.8868,-180 "/>
<text text-anchor="middle" x="309.337" y="-159" font-family="Helvetica,sans-Serif" font-size="10.00" fill="#000000">Notifications</text>
</g>
<!-- A5 -->
<g id="node6" class="node">
<title>A5</title>
<polygon fill="none" stroke="#000000" points="365.24,-108 265.434,-108 265.434,-112 253.434,-112 253.434,-72 365.24,-72 365.24,-108"/>
<polyline fill="none" stroke="#000000" points="253.434,-108 265.434,-108 "/>
<text text-anchor="middle" x="309.337" y="-87" font-family="Helvetica,sans-Serif" font-size="10.00" fill="#000000">Notification Search</text>
</g>
<!-- A4&#45;&gt;A5 -->
<g id="edge3" class="edge">
<title>A4&#45;&gt;A5</title>
<path fill="none" stroke="#000000" stroke-dasharray="5,2" d="M309.337,-143.8314C309.337,-136.131 309.337,-126.9743 309.337,-118.4166"/>
<polygon fill="#000000" stroke="#000000" points="309.337,-108.4133 313.8371,-118.4132 309.337,-113.4133 309.3371,-118.4133 309.3371,-118.4133 309.3371,-118.4133 309.337,-113.4133 304.8371,-118.4133 309.337,-108.4133 309.337,-108.4133"/>
</g>
<!-- A5&#45;&gt;A12 -->
<g id="edge8" class="edge">
<title>A5&#45;&gt;A12</title>
<path fill="none" stroke="#000000" stroke-dasharray="5,2" d="M339.1134,-71.8314C354.2063,-62.6221 372.7127,-51.3301 388.8713,-41.4706"/>
<polygon fill="#000000" stroke="#000000" points="397.5701,-36.1628 391.3776,-45.2129 393.3019,-38.7672 389.0337,-41.3715 389.0337,-41.3715 389.0337,-41.3715 393.3019,-38.7672 386.6898,-37.5301 397.5701,-36.1628 397.5701,-36.1628"/>
</g>
<!-- A6 -->
<g id="node7" class="node">
<title>A6</title>
<polygon fill="none" stroke="#000000" points="484.1222,-180 380.5518,-180 380.5518,-184 368.5518,-184 368.5518,-144 484.1222,-144 484.1222,-180"/>
<polyline fill="none" stroke="#000000" points="368.5518,-180 380.5518,-180 "/>
<text text-anchor="middle" x="426.337" y="-159" font-family="Helvetica,sans-Serif" font-size="10.00" fill="#000000">Check Claim Status</text>
</g>
<!-- A7 -->
<g id="node8" class="node">
<title>A7</title>
<polygon fill="none" stroke="#000000" points="471.336,-108 395.338,-108 395.338,-112 383.338,-112 383.338,-72 471.336,-72 471.336,-108"/>
<polyline fill="none" stroke="#000000" points="383.338,-108 395.338,-108 "/>
<text text-anchor="middle" x="427.337" y="-87" font-family="Helvetica,sans-Serif" font-size="10.00" fill="#000000">Claim Search</text>
</g>
<!-- A6&#45;&gt;A7 -->
<g id="edge4" class="edge">
<title>A6&#45;&gt;A7</title>
<path fill="none" stroke="#000000" stroke-dasharray="5,2" d="M426.5893,-143.8314C426.6963,-136.131 426.8235,-126.9743 426.9423,-118.4166"/>
<polygon fill="#000000" stroke="#000000" points="427.0813,-108.4133 431.4419,-118.4748 427.0118,-113.4128 426.9423,-118.4123 426.9423,-118.4123 426.9423,-118.4123 427.0118,-113.4128 422.4427,-118.3498 427.0813,-108.4133 427.0813,-108.4133"/>
</g>
<!-- A7&#45;&gt;A12 -->
<g id="edge9" class="edge">
<title>A7&#45;&gt;A12</title>
<path fill="none" stroke="#000000" stroke-dasharray="5,2" d="M427.337,-71.8314C427.337,-64.131 427.337,-54.9743 427.337,-46.4166"/>
<polygon fill="#000000" stroke="#000000" points="427.337,-36.4133 431.8371,-46.4132 427.337,-41.4133 427.3371,-46.4133 427.3371,-46.4133 427.3371,-46.4133 427.337,-41.4133 422.8371,-46.4133 427.337,-36.4133 427.337,-36.4133"/>
</g>
<!-- A8 -->
<g id="node9" class="node">
<title>A8</title>
<polygon fill="none" stroke="#000000" points="598.1133,-180 514.5607,-180 514.5607,-184 502.5607,-184 502.5607,-144 598.1133,-144 598.1133,-180"/>
<polyline fill="none" stroke="#000000" points="502.5607,-180 514.5607,-180 "/>
<text text-anchor="middle" x="550.337" y="-165" font-family="Helvetica,sans-Serif" font-size="10.00" fill="#000000">Submit a Claim</text>
<text text-anchor="middle" x="550.337" y="-153" font-family="Helvetica,sans-Serif" font-size="10.00" fill="#000000">Online</text>
</g>
<!-- A9 -->
<g id="node10" class="node">
<title>A9</title>
<polygon fill="none" stroke="#000000" points="582.915,-108 501.759,-108 501.759,-112 489.759,-112 489.759,-72 582.915,-72 582.915,-108"/>
<polyline fill="none" stroke="#000000" points="489.759,-108 501.759,-108 "/>
<text text-anchor="middle" x="536.337" y="-87" font-family="Helvetica,sans-Serif" font-size="10.00" fill="#000000">Patient Search</text>
</g>
<!-- A8&#45;&gt;A9 -->
<g id="edge5" class="edge">
<title>A8&#45;&gt;A9</title>
<path fill="none" stroke="#000000" stroke-dasharray="5,2" d="M546.8042,-143.8314C545.3069,-136.131 543.5265,-126.9743 541.8625,-118.4166"/>
<polygon fill="#000000" stroke="#000000" points="539.9174,-108.4133 546.2434,-117.3705 540.8717,-113.3213 541.8261,-118.2294 541.8261,-118.2294 541.8261,-118.2294 540.8717,-113.3213 537.4089,-119.0884 539.9174,-108.4133 539.9174,-108.4133"/>
</g>
<!-- A9&#45;&gt;A12 -->
<g id="edge10" class="edge">
<title>A9&#45;&gt;A12</title>
<path fill="none" stroke="#000000" stroke-dasharray="5,2" d="M508.8317,-71.8314C495.019,-62.7074 478.1114,-51.539 463.2841,-41.7449"/>
<polygon fill="#000000" stroke="#000000" points="454.8335,-36.1628 465.6578,-37.9197 459.0055,-38.9187 463.1775,-41.6745 463.1775,-41.6745 463.1775,-41.6745 459.0055,-38.9187 460.6973,-45.4293 454.8335,-36.1628 454.8335,-36.1628"/>
</g>
<!-- A10 -->
<g id="node11" class="node">
<title>A10</title>
<polygon fill="none" stroke="#000000" points="726.6232,-180 628.0508,-180 628.0508,-184 616.0508,-184 616.0508,-144 726.6232,-144 726.6232,-180"/>
<polyline fill="none" stroke="#000000" points="616.0508,-180 628.0508,-180 "/>
<text text-anchor="middle" x="671.337" y="-165" font-family="Helvetica,sans-Serif" font-size="10.00" fill="#000000">Physician/Provider</text>
<text text-anchor="middle" x="671.337" y="-153" font-family="Helvetica,sans-Serif" font-size="10.00" fill="#000000">Directory</text>
</g>
<!-- A11 -->
<g id="node12" class="node">
<title>A11</title>
<polygon fill="none" stroke="#000000" points="702.1716,-108 612.5024,-108 612.5024,-112 600.5024,-112 600.5024,-72 702.1716,-72 702.1716,-108"/>
<polyline fill="none" stroke="#000000" points="600.5024,-108 612.5024,-108 "/>
<text text-anchor="middle" x="651.337" y="-87" font-family="Helvetica,sans-Serif" font-size="10.00" fill="#000000">Eligibility Search</text>
</g>
<!-- A11&#45;&gt;A12 -->
<g id="edge6" class="edge">
<title>A11&#45;&gt;A12</title>
<path fill="none" stroke="#000000" stroke-dasharray="5,2" d="M600.5079,-73.6621C560.1561,-60.6918 504.5227,-42.8097 467.3113,-30.8489"/>
<polygon fill="#000000" stroke="#000000" points="457.3323,-27.6414 468.2297,-26.4174 462.0925,-29.1714 466.8526,-30.7015 466.8526,-30.7015 466.8526,-30.7015 462.0925,-29.1714 465.4756,-34.9856 457.3323,-27.6414 457.3323,-27.6414"/>
</g>
</g>
</svg>
