<?xml version="1.0" encoding="UTF-8" standalone="no"?>
<!DOCTYPE svg PUBLIC "-//W3C//DTD SVG 1.1//EN"
 "http://www.w3.org/Graphics/SVG/1.1/DTD/svg11.dtd">
<!-- Generated by graphviz version 2.40.1 (20161225.0304)
 -->
<!-- Title: G Pages: 1 -->
<svg width="239pt" height="377pt"
 viewBox="0.00 0.00 238.62 377.00" xmlns="http://www.w3.org/2000/svg" xmlns:xlink="http://www.w3.org/1999/xlink">
<g id="graph0" class="graph" transform="scale(1 1) rotate(0) translate(4 373)">
<title>G</title>
<polygon fill="#ffffff" stroke="transparent" points="-4,4 -4,-373 234.624,-373 234.624,4 -4,4"/>
<!-- A0 -->
<g id="node1" class="node">
<title>A0</title>
<ellipse fill="none" stroke="#000000" cx="108.5" cy="-358" rx="11" ry="11"/>
</g>
<!-- A1 -->
<g id="node2" class="node">
<title>A1</title>
<path fill="none" stroke="#000000" d="M153.021,-299C153.021,-299 63.979,-299 63.979,-299 57.979,-299 51.979,-293 51.979,-287 51.979,-287 51.979,-275 51.979,-275 51.979,-269 57.979,-263 63.979,-263 63.979,-263 153.021,-263 153.021,-263 159.021,-263 165.021,-269 165.021,-275 165.021,-275 165.021,-287 165.021,-287 165.021,-293 159.021,-299 153.021,-299"/>
<text text-anchor="middle" x="108.5" y="-278" font-family="Helvetica,sans-Serif" font-size="10.00" fill="#000000">{Simulator running}</text>
</g>
<!-- A0&#45;&gt;A1 -->
<g id="edge1" class="edge">
<title>A0&#45;&gt;A1</title>
<path fill="none" stroke="#000000" d="M108.5,-346.9678C108.5,-337.124 108.5,-322.2813 108.5,-309.1664"/>
<polygon fill="#000000" stroke="#000000" points="108.5,-299.1474 113.0001,-309.1473 108.5,-304.1474 108.5001,-309.1474 108.5001,-309.1474 108.5001,-309.1474 108.5,-304.1474 104.0001,-309.1474 108.5,-299.1474 108.5,-299.1474"/>
<text text-anchor="middle" x="121.8365" y="-320" font-family="Helvetica,sans-Serif" font-size="10.00" fill="#000000">[Start]</text>
</g>
<!-- A2 -->
<g id="node3" class="node">
<title>A2</title>
<polygon fill="none" stroke="#000000" points=".5,-183 .5,-215 101.5,-215 101.5,-183 .5,-183"/>
<text text-anchor="start" x="10.433" y="-196" font-family="Helvetica,sans-Serif" font-size="10.00" fill="#000000">{Simulator paused</text>
<polygon fill="none" stroke="#000000" points=".5,-151 .5,-183 101.5,-183 101.5,-151 .5,-151"/>
<text text-anchor="start" x="30.715" y="-164" font-family="Helvetica,sans-Serif" font-size="10.00" fill="#000000">do / wait}</text>
</g>
<!-- A1&#45;&gt;A2 -->
<g id="edge2" class="edge">
<title>A1&#45;&gt;A2</title>
<path fill="none" stroke="#000000" d="M51.7928,-268.2212C40.2853,-262.9462 29.5817,-255.5018 22.596,-245 18.4161,-238.7162 18.0647,-231.7038 19.8901,-224.7187"/>
<polygon fill="#000000" stroke="#000000" points="23.5736,-215.2815 24.1295,-226.2333 21.7556,-219.9393 19.9375,-224.597 19.9375,-224.597 19.9375,-224.597 21.7556,-219.9393 15.7455,-222.9608 23.5736,-215.2815 23.5736,-215.2815"/>
<text text-anchor="middle" x="40.452" y="-236" font-family="Helvetica,sans-Serif" font-size="10.00" fill="#000000">[Pause]</text>
</g>
<!-- A3 -->
<g id="node4" class="node">
<title>A3</title>
<ellipse fill="none" stroke="#000000" cx="176.5" cy="-15" rx="11" ry="11"/>
<ellipse fill="none" stroke="#000000" cx="176.5" cy="-15" rx="15" ry="15"/>
</g>
<!-- A1&#45;&gt;A3 -->
<g id="edge3" class="edge">
<title>A1&#45;&gt;A3</title>
<path fill="none" stroke="#000000" d="M141.6016,-262.9313C158.8331,-251.6058 178.3713,-235.3002 188.5,-215 217.8839,-156.1082 203.8546,-131.9957 193.5,-67 191.9749,-57.4269 188.9637,-47.2217 185.8939,-38.4102"/>
<polygon fill="#000000" stroke="#000000" points="182.3487,-28.8277 190.039,-36.645 184.0836,-33.5171 185.8186,-38.2064 185.8186,-38.2064 185.8186,-38.2064 184.0836,-33.5171 181.5981,-39.7679 182.3487,-28.8277 182.3487,-28.8277"/>
<text text-anchor="middle" x="217.562" y="-124" font-family="Helvetica,sans-Serif" font-size="10.00" fill="#000000">[Stop]</text>
</g>
<!-- A2&#45;&gt;A1 -->
<g id="edge5" class="edge">
<title>A2&#45;&gt;A1</title>
<path fill="none" stroke="#000000" d="M64.1231,-215.2774C68.7026,-225.0711 74.1331,-235.6953 79.928,-245 81.9449,-248.2384 84.205,-251.5229 86.5472,-254.7233"/>
<polygon fill="#000000" stroke="#000000" points="92.828,-262.9091 83.1704,-257.7147 89.7843,-258.9423 86.7406,-254.9754 86.7406,-254.9754 86.7406,-254.9754 89.7843,-258.9423 90.3108,-252.2361 92.828,-262.9091 92.828,-262.9091"/>
<text text-anchor="middle" x="103.286" y="-236" font-family="Helvetica,sans-Serif" font-size="10.00" fill="#000000">[Unpause]</text>
</g>
<!-- A4 -->
<g id="node5" class="node">
<title>A4</title>
<path fill="none" stroke="#000000" d="M172.1865,-103C172.1865,-103 106.8135,-103 106.8135,-103 100.8135,-103 94.8135,-97 94.8135,-91 94.8135,-91 94.8135,-79 94.8135,-79 94.8135,-73 100.8135,-67 106.8135,-67 106.8135,-67 172.1865,-67 172.1865,-67 178.1865,-67 184.1865,-73 184.1865,-79 184.1865,-79 184.1865,-91 184.1865,-91 184.1865,-97 178.1865,-103 172.1865,-103"/>
<text text-anchor="middle" x="139.5" y="-82" font-family="Helvetica,sans-Serif" font-size="10.00" fill="#000000">{Log retrieval}</text>
</g>
<!-- A2&#45;&gt;A4 -->
<g id="edge6" class="edge">
<title>A2&#45;&gt;A4</title>
<path fill="none" stroke="#000000" d="M44.4139,-150.9338C44.1068,-140.6086 45.6902,-129.6197 51.585,-121 59.5263,-109.3877 71.9357,-101.517 84.9541,-96.1838"/>
<polygon fill="#000000" stroke="#000000" points="94.4859,-92.7316 86.616,-100.368 89.7847,-94.4343 85.0835,-96.1369 85.0835,-96.1369 85.0835,-96.1369 89.7847,-94.4343 83.5511,-91.9059 94.4859,-92.7316 94.4859,-92.7316"/>
<text text-anchor="middle" x="89.4575" y="-124" font-family="Helvetica,sans-Serif" font-size="10.00" fill="#000000">[Data requested]</text>
</g>
<!-- A4&#45;&gt;A1 -->
<g id="edge4" class="edge">
<title>A4&#45;&gt;A1</title>
<path fill="none" stroke="#000000" d="M139.9704,-103.1169C140.298,-133.1583 139.0451,-194.9359 125.5,-245 124.7385,-247.8147 123.7662,-250.6794 122.6735,-253.5011"/>
<polygon fill="#000000" stroke="#000000" points="118.6246,-262.7943 118.4934,-251.8292 120.6218,-258.2105 122.6189,-253.6266 122.6189,-253.6266 122.6189,-253.6266 120.6218,-258.2105 126.7443,-255.424 118.6246,-262.7943 118.6246,-262.7943"/>
<text text-anchor="middle" x="161.285" y="-180" font-family="Helvetica,sans-Serif" font-size="10.00" fill="#000000">[Continue]</text>
</g>
<!-- A4&#45;&gt;A3 -->
<g id="edge7" class="edge">
<title>A4&#45;&gt;A3</title>
<path fill="none" stroke="#000000" d="M149.0284,-66.9733C153.7818,-57.9803 159.5779,-47.0148 164.6188,-37.478"/>
<polygon fill="#000000" stroke="#000000" points="169.3414,-28.5434 168.6467,-39.4872 167.0048,-32.9639 164.6682,-37.3843 164.6682,-37.3843 164.6682,-37.3843 167.0048,-32.9639 160.6898,-35.2814 169.3414,-28.5434 169.3414,-28.5434"/>
</g>
</g>
</svg>
