<?xml version="1.0" encoding="UTF-8" standalone="no"?>
<!DOCTYPE svg PUBLIC "-//W3C//DTD SVG 1.1//EN"
 "http://www.w3.org/Graphics/SVG/1.1/DTD/svg11.dtd">
<!-- Generated by graphviz version 2.40.1 (20161225.0304)
 -->
<!-- Title: G Pages: 1 -->
<svg width="591pt" height="282pt"
 viewBox="0.00 0.00 590.52 282.00" xmlns="http://www.w3.org/2000/svg" xmlns:xlink="http://www.w3.org/1999/xlink">
<g id="graph0" class="graph" transform="scale(1 1) rotate(0) translate(4 278)">
<title>G</title>
<polygon fill="#ffffff" stroke="transparent" points="-4,4 -4,-278 586.5205,-278 586.5205,4 -4,4"/>
<!-- A0 -->
<g id="node1" class="node">
<title>A0</title>
<polygon fill="none" stroke="#000000" points="352.862,-274 240.155,-274 236.155,-270 236.155,-238 348.862,-238 352.862,-242 352.862,-274"/>
<polyline fill="none" stroke="#000000" points="348.862,-270 236.155,-270 "/>
<polyline fill="none" stroke="#000000" points="348.862,-270 348.862,-238 "/>
<polyline fill="none" stroke="#000000" points="348.862,-270 352.862,-274 "/>
<text text-anchor="middle" x="294.5085" y="-253" font-family="Helvetica,sans-Serif" font-size="10.00" fill="#000000">Presentation Server</text>
</g>
<!-- A1 -->
<g id="node2" class="node">
<title>A1</title>
<polygon fill="none" stroke="#000000" points="337.8986,-201 255.1184,-201 251.1184,-197 251.1184,-165 333.8986,-165 337.8986,-169 337.8986,-201"/>
<polyline fill="none" stroke="#000000" points="333.8986,-197 251.1184,-197 "/>
<polyline fill="none" stroke="#000000" points="333.8986,-197 333.8986,-165 "/>
<polyline fill="none" stroke="#000000" points="333.8986,-197 337.8986,-201 "/>
<text text-anchor="middle" x="294.5085" y="-180" font-family="Helvetica,sans-Serif" font-size="10.00" fill="#000000">Policy Server</text>
</g>
<!-- A0&#45;&gt;A1 -->
<g id="edge1" class="edge">
<title>A0&#45;&gt;A1</title>
<path fill="none" stroke="#000000" d="M294.5085,-237.9551C294.5085,-226.7241 294.5085,-212.3298 294.5085,-201.0904"/>
</g>
<!-- A2 -->
<g id="node3" class="node">
<title>A2</title>
<polygon fill="none" stroke="#000000" points="226.2957,-124 124.7213,-124 120.7213,-120 120.7213,-88 222.2957,-88 226.2957,-92 226.2957,-124"/>
<polyline fill="none" stroke="#000000" points="222.2957,-120 120.7213,-120 "/>
<polyline fill="none" stroke="#000000" points="222.2957,-120 222.2957,-88 "/>
<polyline fill="none" stroke="#000000" points="222.2957,-120 226.2957,-124 "/>
<text text-anchor="middle" x="173.5085" y="-103" font-family="Helvetica,sans-Serif" font-size="10.00" fill="#000000">Document Server</text>
</g>
<!-- A1&#45;&gt;A2 -->
<g id="edge2" class="edge">
<title>A1&#45;&gt;A2</title>
<path fill="none" stroke="#000000" d="M266.1394,-164.9469C246.8604,-152.6785 221.4491,-136.5076 202.1191,-124.2068"/>
</g>
<!-- A5 -->
<g id="node6" class="node">
<title>A5</title>
<polygon fill="none" stroke="#000000" points="103.0255,-124 3.9915,-124 -.0085,-120 -.0085,-88 99.0255,-88 103.0255,-92 103.0255,-124"/>
<polyline fill="none" stroke="#000000" points="99.0255,-120 -.0085,-120 "/>
<polyline fill="none" stroke="#000000" points="99.0255,-120 99.0255,-88 "/>
<polyline fill="none" stroke="#000000" points="99.0255,-120 103.0255,-124 "/>
<text text-anchor="middle" x="51.5085" y="-103" font-family="Helvetica,sans-Serif" font-size="10.00" fill="#000000">Database Server</text>
</g>
<!-- A1&#45;&gt;A5 -->
<g id="edge5" class="edge">
<title>A1&#45;&gt;A5</title>
<path fill="none" stroke="#000000" d="M251.0194,-170.7194C213.7965,-160.0202 158.8751,-143.7863 111.5085,-128 107.7193,-126.7371 103.8092,-125.3944 99.8873,-124.0192"/>
</g>
<!-- A6 -->
<g id="node7" class="node">
<title>A6</title>
<polygon fill="#fff8dc" stroke="#000000" points="576.5325,-128 474.4845,-128 474.4845,-84 582.5325,-84 582.5325,-122 576.5325,-128"/>
<polyline fill="none" stroke="#000000" points="576.5325,-128 576.5325,-122 "/>
<polyline fill="none" stroke="#000000" points="582.5325,-122 576.5325,-122 "/>
<text text-anchor="middle" x="528.5085" y="-115" font-family="Helvetica,sans-Serif" font-size="10.00" fill="#000000">To be clustered to</text>
<text text-anchor="middle" x="528.5085" y="-103" font-family="Helvetica,sans-Serif" font-size="10.00" fill="#000000">meet throughput</text>
<text text-anchor="middle" x="528.5085" y="-91" font-family="Helvetica,sans-Serif" font-size="10.00" fill="#000000">needs</text>
</g>
<!-- A1&#45;&gt;A6 -->
<g id="edge7" class="edge">
<title>A1&#45;&gt;A6</title>
<path fill="none" stroke="#000000" stroke-dasharray="5,2" d="M338.1819,-169.2812C372.7924,-158.3302 422.3408,-142.4769 465.5085,-128 468.3643,-127.0423 471.2899,-126.0521 474.2416,-125.0461"/>
</g>
<!-- A7 -->
<g id="node8" class="node">
<title>A7</title>
<polygon fill="none" stroke="#000000" points="344.7257,-124 248.2913,-124 244.2913,-120 244.2913,-88 340.7257,-88 344.7257,-92 344.7257,-124"/>
<polyline fill="none" stroke="#000000" points="340.7257,-120 244.2913,-120 "/>
<polyline fill="none" stroke="#000000" points="340.7257,-120 340.7257,-88 "/>
<polyline fill="none" stroke="#000000" points="340.7257,-120 344.7257,-124 "/>
<text text-anchor="middle" x="294.5085" y="-103" font-family="Helvetica,sans-Serif" font-size="10.00" fill="#000000">Directory Server</text>
</g>
<!-- A1&#45;&gt;A7 -->
<g id="edge8" class="edge">
<title>A1&#45;&gt;A7</title>
<path fill="none" stroke="#000000" d="M294.5085,-164.7521C294.5085,-152.4777 294.5085,-136.3639 294.5085,-124.1169"/>
</g>
<!-- A8 -->
<g id="node9" class="node">
<title>A8</title>
<polygon fill="none" stroke="#000000" points="456.0655,-124 366.9515,-124 362.9515,-120 362.9515,-88 452.0655,-88 456.0655,-92 456.0655,-124"/>
<polyline fill="none" stroke="#000000" points="452.0655,-120 362.9515,-120 "/>
<polyline fill="none" stroke="#000000" points="452.0655,-120 452.0655,-88 "/>
<polyline fill="none" stroke="#000000" points="452.0655,-120 456.0655,-124 "/>
<text text-anchor="middle" x="409.5085" y="-109" font-family="Helvetica,sans-Serif" font-size="10.00" fill="#000000">Underwriting &amp;</text>
<text text-anchor="middle" x="409.5085" y="-97" font-family="Helvetica,sans-Serif" font-size="10.00" fill="#000000">Rating Server</text>
</g>
<!-- A1&#45;&gt;A8 -->
<g id="edge9" class="edge">
<title>A1&#45;&gt;A8</title>
<path fill="none" stroke="#000000" d="M321.4709,-164.9469C339.7939,-152.6785 363.9451,-136.5076 382.3166,-124.2068"/>
</g>
<!-- A4 -->
<g id="node5" class="node">
<title>A4</title>
<polygon fill="none" stroke="#000000" points="213.7898,-36 137.2272,-36 133.2272,-32 133.2272,0 209.7898,0 213.7898,-4 213.7898,-36"/>
<polyline fill="none" stroke="#000000" points="209.7898,-32 133.2272,-32 "/>
<polyline fill="none" stroke="#000000" points="209.7898,-32 209.7898,0 "/>
<polyline fill="none" stroke="#000000" points="209.7898,-32 213.7898,-36 "/>
<text text-anchor="middle" x="173.5085" y="-15" font-family="Helvetica,sans-Serif" font-size="10.00" fill="#000000">Workstation</text>
</g>
<!-- A2&#45;&gt;A4 -->
<g id="edge4" class="edge">
<title>A2&#45;&gt;A4</title>
<path fill="none" stroke="#000000" d="M173.5085,-87.7663C173.5085,-72.6634 173.5085,-51.3068 173.5085,-36.2103"/>
<text text-anchor="middle" x="192.68" y="-57" font-family="Helvetica,sans-Serif" font-size="10.00" fill="#000000">ASP.Net</text>
</g>
<!-- A3 -->
<g id="node4" class="node">
<title>A3</title>
<polygon fill="none" stroke="#000000" points="165.687,-201 75.33,-201 71.33,-197 71.33,-165 161.687,-165 165.687,-169 165.687,-201"/>
<polyline fill="none" stroke="#000000" points="161.687,-197 71.33,-197 "/>
<polyline fill="none" stroke="#000000" points="161.687,-197 161.687,-165 "/>
<polyline fill="none" stroke="#000000" points="161.687,-197 165.687,-201 "/>
<text text-anchor="middle" x="118.5085" y="-180" font-family="Helvetica,sans-Serif" font-size="10.00" fill="#000000">Product Server</text>
</g>
<!-- A3&#45;&gt;A2 -->
<g id="edge3" class="edge">
<title>A3&#45;&gt;A2</title>
<path fill="none" stroke="#000000" d="M131.5427,-164.7521C140.3102,-152.4777 151.82,-136.3639 160.5678,-124.1169"/>
</g>
<!-- A3&#45;&gt;A5 -->
<g id="edge6" class="edge">
<title>A3&#45;&gt;A5</title>
<path fill="none" stroke="#000000" d="M102.6304,-164.7521C91.9501,-152.4777 77.9291,-136.3639 67.2726,-124.1169"/>
</g>
</g>
</svg>
